<svg width="59" height="60" viewBox="0 0 59 60" fill="none" xmlns="http://www.w3.org/2000/svg">
<path fill-rule="evenodd" clip-rule="evenodd" d="M59 30C59 13.7076 45.7924 0.499996 29.5 0.499996C13.2076 0.499996 0 13.7076 0 30C0 46.2924 13.2076 59.5 29.5 59.5C36.4188 59.5 42.7813 57.1181 47.8122 53.1297H47.9717V53.0023C48.1014 52.898 48.2302 52.7927 48.3581 52.6862L48.3859 52.7032L48.4356 52.6215C54.8936 47.2101 59 39.0846 59 30ZM48.2107 50.904C53.9456 45.7672 57.5544 38.305 57.5544 30C57.5544 21.7681 54.0089 14.3643 48.3617 9.23233L13.4848 28.5266H44.0128C44.412 28.5266 44.7356 28.8502 44.7356 29.2494C44.7356 29.6486 44.412 29.9722 44.0128 29.9722H13.8346L48.2107 50.904ZM11.3243 29.9722L11.3243 51.3711C5.27969 46.2253 1.4456 38.5604 1.4456 30C1.4456 21.4396 5.27969 13.7747 11.3243 8.62889L11.3243 28.5266H11.3243V29.9722H11.3243ZM46.7093 8.4944L12.7699 27.2701L12.7699 8.4944H46.7093ZM46.7122 51.6841H12.7699L12.7699 31.0165L46.7122 51.6841ZM29.5 58.0544C35.3952 58.0544 40.8657 56.2361 45.3813 53.1297H13.6187C18.1343 56.2361 23.6048 58.0544 29.5 58.0544ZM13.3624 7.0488C17.9266 3.83368 23.4928 1.9456 29.5 1.9456C35.5072 1.9456 41.0734 3.83368 45.6376 7.0488H13.3624Z" fill="black"/>
</svg>
