<svg width="534" height="214" viewBox="0 0 534 214" fill="none" xmlns="http://www.w3.org/2000/svg">
<path d="M293.1 170.978C293.1 180.044 295.151 186.867 299.255 191.448C303.454 195.934 309.514 198.177 317.435 198.177C325.355 198.177 331.368 195.934 335.472 191.448C339.575 186.867 341.627 180.044 341.627 170.978V111.572H359.807V171.122C359.807 185.246 356.228 195.934 349.07 203.186C341.913 210.344 331.368 213.923 317.435 213.923C303.597 213.923 293.004 210.344 285.655 203.186C278.403 195.934 274.776 185.246 274.776 171.122V111.572H293.1V170.978ZM133.485 66.3047L169.134 0.253876H184.165V114.186L236.405 182.033V111.572H253.44V212.491H239.841L185.444 141.708V212.491H184.165V212.745H167.56V33.1884L138.644 85.8564H127.907L98.9912 33.5254V101.174H82.3857V0.253876H97.7031L133.485 66.3047ZM448.312 126.173H398.783V153.943H445.163V168.545H398.783V197.891H448.312V212.491H381.176V111.572H448.312V126.173ZM484.913 196.889H533.297V212.491H466.59V111.572H484.913V196.889ZM67.1367 14.6015H17.6074V42.372H63.9873V56.9726H17.6074V86.3183H67.1367V100.92H0V-3.05176e-05H67.1367V14.6015ZM249.268 66.0498L284.916 -3.05176e-05H299.946V100.92H283.342V32.9345L254.426 85.6025H243.689L214.773 33.2715V100.92H198.168V-3.05176e-05H213.485L249.268 66.0498ZM417.639 100.92H399.029L389.013 77.5869H339.787L329.889 100.92H311.279L356.943 -3.05176e-05H371.974L417.639 100.92ZM346.129 62.9853H382.774L364.53 19.8974H364.244L346.129 62.9853Z" fill="black"/>
</svg>
